<?xml version="1.0" encoding="utf-8"?>
<!-- Generator: Adobe Illustrator 12.0.0, SVG Export Plug-In . SVG Version: 6.00 Build 51448)  -->
<!DOCTYPE svg PUBLIC "-//W3C//DTD SVG 1.1//EN" "http://www.w3.org/Graphics/SVG/1.1/DTD/svg11.dtd" [
	<!ENTITY ns_flows "http://ns.adobe.com/Flows/1.0/">
	<!ENTITY ns_extend "http://ns.adobe.com/Extensibility/1.0/">
	<!ENTITY ns_ai "http://ns.adobe.com/AdobeIllustrator/10.0/">
	<!ENTITY ns_graphs "http://ns.adobe.com/Graphs/1.0/">
	<!ENTITY ns_svg "http://www.w3.org/2000/svg">
	<!ENTITY ns_xlink "http://www.w3.org/1999/xlink">
]>
<svg  version="1.1" id="Layer_1" xmlns:x="&ns_extend;" xmlns:i="&ns_ai;" xmlns:graph="&ns_graphs;"
	 xmlns="&ns_svg;" xmlns:xlink="&ns_xlink;" xmlns:a="http://ns.adobe.com/AdobeSVGViewerExtensions/3.0/" width="387" height="185"
	 viewBox="0 0 387 185" overflow="visible" enable-background="new 0 0 387 185" xml:space=
	 "preserve">
	 	<!-- the line containing viewbox = something makes it change the position of the icon inside the circle -->
<rect fill="none" width="387" height="185"/>
<path d="M211.4165,129.83643c-1.39307-2.45654-2.89502-3.79834-5.28857-4.83301c-1.93359-0.83594-4.82813-1.34424-6.93066-1.37305
	c-1.65283-0.02246-1.15186-0.18457-2.42871,1.06396c-0.86719,0.84766-1.58545,1.92041-2.38965,2.8335
	c-3.13184,3.55518-6.67822,6.97803-9.95166,10.23633c-4.97217,4.94922-9.85352,10.18506-13.0415,16.50342
	c1.35059,1.396,3.30859,4.43896,5.31543,4.6582c1.01758,0.11133,2.43457-0.67627,3.50732-0.3042
	c2.17334,0.75488,4.4751,4.23633,3.00342,6.36426c0.87793-1.27002-3.78223-0.40479-3.82617-0.39502
	c-1.7583,0.38232-3.36719,0.28027-5.18359,0.29346c-5.09912,0.03662-10.17822-0.55078-15.27686-0.55078
	c-4.79248,0-10.11133,1.5918-9.72021-4.73682c0.38086-6.16602,5.00195-11.06055,7.56006-16.51563
	c2.68359-5.72314,3.43408-10.51367,3.91553-16.69434c0.54346-6.97314,5.3291-13.12646,8.4209-18.9834
	c-5.67773,1.55371-12.05908,1.57813-17.94922,2.62012c-6.17969,1.09375-12.31689,2.41895-18.41846,3.88428
	c-5.46094,1.31152-10.771,3.52295-16.06836,5.35254c-12.31836,4.25488-24.57227,7.18262-37.64063,8.49707
	c-4.79199,0.48193-9.66748,0.75586-14.48145,0.90967c-5.80273,0.18555-10.86914,0.79785-16.54395-0.15039
	c-6.18408-1.03271-12.41846-1.77637-18.60254-2.85059c-6.31152-1.09668-16.82129-1.12256-21.82959-5.67383
	c-6.0083-5.45996,5.18652-3.10156,8.44043-2.9751c14.04053,0.54688,26.82764,0.0835,40.37842-3.29004
	c14.73047-3.66699,29.06885-11.51416,42.04688-19.17529c16.97656-10.02148,33.10498-21.38086,49.27441-32.63428
	c6.93701-4.82813,13.88623-9.05469,20.88281-13.67236c6.87402-4.53662,12.93701-10.37158,20.66895-13.50293
	c7.37061-2.98486,17.16797-5.03271,25.14648-4.21777c4.48877,0.4585,8.78223,1.88086,13.08154,3.17236
	c3.07666,0.92432,7.13965,3.40771,10.43848,2.25439c1.72363-0.60254,1.28418-1.44385,3.23828-0.46631
	c1.28809,0.64404,2.34375,2.32813,3.95508,2.20459c0.43262-2.9624,5.87695,2.20605,6.94922,2.63965
	c0.05469-3.81104,7.14844,2.03174,8.08496,2.55322c1.1582-1.85303,4.76563,1.76367,6.2002,2.57129
	c0.1875-2.68018,6.15918,2.26172,7.24609,3.03467c0.85938-1.83203,5.1709,1.7207,6.27441,2.73828
	c1.30469-1.9541,4.5918,2.81445,6.05078,3.50293c-1.1709-1.74072,0.60547-0.87988,1.2334-0.49219
	c1.45898,0.90186,2.26758,2.5459,3.94922,3.19971c-0.03223-0.19775-0.05762-0.39648-0.07422-0.59619
	c1.23633,0.48584,2.64355,2.51611,3.87598,1.64941c0.79492-0.55859,0.61035-2.50537,0.61133-3.30469
	c0.00195-2.4248-1.03809-5.27832-0.56055-7.65967c0.91113-4.53857,1.23828-9.24609,2.64258-13.71533
	c0.98926-3.14307,3.47266-8.20361,7.08398-8.96143c9.11621-1.91357,7.36523,8.9209,9.39648,14.14404
	c2.2832,5.87354,6.10059,11.3999,10.70313,15.69531c2.17188,2.02734,4.8418,4.33936,7.70313,5.32227
	c2.61035,0.89648,6.37207-0.98145,8.40234,0.2207c1.25977,0.74609,1.6416,3.18018,2.44336,4.32813
	c2.14453,3.07178,7.32715,8.39502,11.16504,8.91406c9.38965,1.26953,14.42871-17.20801,17.85742-23.37695
	c1.44238,8.86572-0.85938,17.66943-3.44043,25.97754c-0.93945,3.02295-4.71875,9.22754,0.7002,9.65088
	c-0.26074,3.77783,4.34961,5.10986,5.39844,8.57715c1.70117,5.62012-2.9082,12.72363-6.33594,16.88477
	c-1.61133,1.95557-4.0625,3.92139-6.24707,5.18408c-0.29785,0.17236-6.48047,2.25732-5.97461,1.31152
	c0.68359-1.27734,1.87402-4.9917,0.13379-5.96582c-2.28418-1.27783-3.02539,2.21582-4.25977,2.96582
	c-3.94336,2.39746-8.41699-0.75293-12.25781-2.34033c-3.54395-1.46484-7.0498-2.11963-10.18359-4.48633
	c-3.33691-2.52002-6.37109-6.57715-10.56641-7.70459c-4.6377-1.24707-10.08496,0.89111-14.03125,3.1875
	c-1.74316,1.01416-4.08105,1.62695-4.31055,3.66406c-0.12402,1.10791,0.74219,3.25244,0.97949,4.38281
	c0.43066,2.06055,0.77148,4.125,1.1416,6.2002c0.28906,1.62061,0.51367,3.22314,0.71973,4.83008
	c0.21191,1.64795-0.57227,1.15918,0.82227,1.87988c1.84277,0.95166,3.87305,0.86865,5.77734,2.27295
	c3.68066,2.71484,6.23438,6.54834,9.40918,9.77295c3.72168,3.78076,8.28809,6.86475,10.6377,11.77783
	c1.87598,3.92041,1.80957,9.51123,6.19824,11.53809c2.32813,1.0752,9.21875,1.96924,5.41309,6.01709
	c-2.41504,2.56787-7.46289,0.87842-10.08887-0.24854c-1.06348-0.45703-5.14844-1.36816-5.69043-1.82715
	c-1.4834-1.25537-0.53125-3.10498-1.09668-4.72217c-0.78125-2.23633-2.36035-1.59863-4-2.95068
	c-1.22168-1.00732-0.79492-2.37109-1.32324-3.77783c-0.6123-1.62793-1.90234-2.04639-3.21094-3.03076
	c-2.87793-2.16211-6.0166-3.63232-9.23242-5.23535c-4.42676-2.20703-8.65527-4.76465-13.06348-6.99512
	c-1.60156-0.81055-3.59277-1.2041-4.93555-2.36621c-2.22656-1.92578-6.38281-8.90332-7.74609-1.72217
	c-0.16602,0.87891,0.21484,1.08643,0.87109,2.01758c1.34961,1.91064,2.34766,3.94189,3.37207,6.09863
	c2.05176,4.31982,2.84668,9.29199,5.53516,13.30225c2.28711,3.41064,6.68359,5.21582,10.69727,5.08252
	c4.55078-0.15088,7.93164,1.82324,11.3916,4.85938c1.38086,1.2124,1.68066,2.1626-0.30273,2.98926
	c-1.92969,0.8042-3.11816-0.89453-4.85547-0.74609c-0.85059,2.87451-2.40137,2.46924-4.94727,2.09424
	c-1.36719-0.20117-2.28711-0.26855-3.69727-0.4585c-2.37695-0.32031-4.06934-0.3125-6.59961-0.16943
	c-1.20508,0.06836-2.99414,0.18213-4.14551-0.19385c-2.21387-0.72461-5.45898-4.00781-6.77734-5.88916
	c-1.76172-2.51318-4.57227-5.22852-6.87402-7.37109c-3.13574-2.91797-8.04688-3.83594-10.2793-7.65039
	c-1.46582-2.50391-1.70215-5.58936-3.21191-8.04004c-0.49316-0.80078-1.47559-1.32764-1.19238-2.22559
	c-2.28516-2.61377-0.34375-10.22217-0.56055-13.7998c-1.90039,1.14941-22.1416,10.11523-22.46289,6.74316
	c0.45117,4.73877-0.5459,9.57764-2.0625,14.0498c-1.22363,3.60693-3.24219,6.67383-3.11914,10.62158
	c0.08984,2.85645,0.45508,3.01367,3.01465,3.66895c1.98438,0.50732,3.73828,1.35059,5.84961,1.08838
	c4.11914-0.51172,7.2207,1.60986,6.9707,6.24609c-1.87793-0.9834-1.28027-0.73975-3.14063-0.32568
	c-1.00879,0.22461-1.83594,0.47559-2.54199-0.39014c-2.04492,1.43604-6.10352,1.39355-8.55469,1.64063
	c-3.81982,0.38525-7.70215,0.52441-11.53711,0.35352c-4.66553-0.20801-7.24414-0.54004-9.20947-4.90918
	c-0.22949-0.51025-0.854-1.43799-0.87256-1.98926c-0.02002-0.58203,0.56055-0.72949,0.69043-1.33838
	c0.96826-4.55762,0.16602-9.41943,0.45947-14.06348c0.30566-4.81201,0.36865-9.87988-2.14404-14.1875
	C211.44336,129.88379,211.43018,129.85986,211.4165,129.83643z"/>
<path fill="#9D9FA1" d="M121.18555,118.57227c-0.61572,0.20459-1.23145,0.40967-1.84814,0.61572
	c-6.15137,2.05273-12.28467,3.74121-18.46631,5.68115c-3.74902,1.17676-7.55713,2.59863-11.45264,3.11572
	c-6.09131,0.80908-12.24902,0.83984-18.37939,1.07861c-4.4082,0.17139-8.8252,0.14453-13.23242-0.04248
	c-3.74072-0.15869-7.57813,0.19531-11.28906-0.39795c-5.10156-0.81543-10.04785-0.70117-15.09814-1.66211
	c-6.27148-1.19336-12.67529-1.98877-18.69531-4.21191c-1.76514-0.65186-4.62207-1.30371-5.91064-2.72461
	c-0.10254-0.11377-1.72998-2.58984-0.69824-2.54346c3.4292,0.1543,6.85645,2.23926,10.2793,2.86084
	c4.06299,0.73779,8.21973,1.66309,12.33936,1.9917c10.70508,0.85352,20.90381-0.29834,31.59033-1.59229
	c16.38721-1.98438,32.29199-6.92529,47.34131-13.62549c9.02637-4.01855,17.07129-9.81055,25.40479-15.04248
	c8.56836-5.37891,17.69922-9.7627,26.39795-14.94531c1.77979-1.06055,3.87061-2.71045,5.03906-4.45508
	c1.35742-2.02686,1.77686-4.54541,3.43408-6.47705c-3.4751,9.45068-1.37598,18.9707,0.80908,28.45703
	c0.70508,3.06104,2.72363,6.31934,2.09717,9.54297c-0.3877,1.99609-1.82715,4.15527-2.73633,5.99414
	c-1.09717,2.21924-2.50684,4.59766-4.38477,6.24902c0.81787-0.71875-5.53223-4.79248-6.31055-5.11035
	c-1.79102-0.73047-3.17041-0.1377-5.00488,0.02051c-3.27979,0.28271-6.35742,0.58252-9.62305,1.17969
	c-3.95654,0.72363-7.95898,1.40967-11.77637,2.73145C127.73584,116.39453,124.46729,117.47998,121.18555,118.57227z"/>
<path fill="#9D9FA1" d="M220.49707,81.12744c-3.15088-0.74365-6.25488-0.92773-8.29395,0.60498
	c-5.75488,4.32568-4.74316,14.22803-4.74316,20.51953c0.00049,3.79443-0.40283,6.60693-1.97998,10.06543
	c-1.396,3.06201-4.18945,5.11865-5.78711,8.03076c-0.56348,1.02686-1.021,2.17285-1.75,3.06641
	c-1.13574,1.3916-2.89209,2.16504-3.42432,4.05225c3.4834,1.28955,6.6748,0.07861,10.16064-0.64502
	c3.64014-0.75586,5.92822,0.12402,9.38965,0.93555c5.42627,1.27197,11.03564,2.20117,16.62354,2.16846
	c6.8916-0.04053,14.02051,0.28662,20.7373-1.54199c1.69922-0.46289,7.65039-1.74121,8.60059-3.33301
	c1.41211-2.36621,0.66113-5.80762,0.33105-8.3457c-0.46484-3.57031,0.62988-7.14893,0.96289-10.71289
	c0.45117-4.82373-2.17578-6.85205-6.31738-9.75c-7.80762-5.4624-16.43066-9.50732-25.54932-12.2417
	C227.22559,83.33105,223.83496,81.91504,220.49707,81.12744z"/>
<path fill="#9D9FA1" d="M315.35742,100.36523c-3.72754,0.66016-7.87695,2.0918-10.9541,3.29883
	c-4.57813,1.7959-7.78027,5.3833-10.59375,9.27588c-2.01172,2.78223-5.57617,10.14697-9.3623,10.55078
	c1.55664-2.90527,3.29102-5.10303,4.37598-8.2832c1.46191-4.28613,2.41211-8.79443,2.91797-13.2915
	c0.34375-3.05176-0.44824-7.01855,0.96973-9.6416c1.69141-3.13135,6.15625-7.00537,8.89746-9.51465
	c0.12012,1.5415,1.00879,2.67578,2.46582,3.10693c3.69238-2.40039,8.08594-7.71875,13.18457-5.96533
	c6.93359,2.38574,3.08398,9.40186-1.84277,11.55615c-0.95605,0.41797-9.75195,3.89014-9.72266,3.93359
	c2.33984,3.4707,8.99219,4.69434,13.0459,4.60986C317.68652,100.02295,316.54395,100.15527,315.35742,100.36523z"/>
<path fill="#9D9FA1" d="M336.48047,72.51953c2.51367,0.78076,2.58691-3.03564,0.29688-3.13525
	C335,69.30713,334.83984,72.00977,336.48047,72.51953z"/>
</svg>
